<?xml version="1.0" encoding="utf-8"?>
<!-- Generator: Adobe Illustrator 19.2.1, SVG Export Plug-In . SVG Version: 6.00 Build 0)  -->
<svg version="1.1" id="Layer_1" xmlns="http://www.w3.org/2000/svg" xmlns:xlink="http://www.w3.org/1999/xlink" x="0px" y="0px"
	 viewBox="0 0 857.1 1000" style="enable-background:new 0 0 857.1 1000;" xml:space="preserve">
<style type="text/css">
	.st0{fill:#8CF0F5;}
	.st1{fill:none;}
</style>
<path class="st0" d="M285.7,714.3c0-19.7-7-36.5-20.9-50.5c-13.9-14-30.8-20.9-50.5-20.9s-36.5,7-50.5,20.9
	c-13.9,13.9-20.9,30.8-20.9,50.5c0,19.7,7,36.5,20.9,50.5c14,13.9,30.8,20.9,50.5,20.9s36.5-7,50.5-20.9
	C278.7,750.9,285.7,734,285.7,714.3z M481.6,766.8c-4.8-86.3-37.8-160-98.8-221c-61-61-134.7-93.9-221-98.8c-5.2-0.4-9.7,1.3-13.4,5
	c-3.7,3.7-5.6,8-5.6,12.8v71.4c0,4.8,1.6,8.9,4.7,12.3c3.2,3.3,7.2,5.2,12,5.6c57.3,4.1,106.4,26.6,147.3,67.5
	c40.9,40.9,63.4,90,67.5,147.3c0.4,4.8,2.2,8.8,5.6,12c3.3,3.2,7.4,4.7,12.3,4.7h71.4c4.8,0,9.1-1.9,12.8-5.6
	C480.3,776.4,481.9,772,481.6,766.8L481.6,766.8z M695.8,767.3c-1.9-57.3-12.3-112.6-31.2-166c-19-53.4-44.9-101.7-77.8-145.1
	s-71.1-81.5-114.4-114.4S380.6,283,327.3,264s-108.7-29.4-166-31.2c-5.2-0.4-9.5,1.3-12.8,5c-3.7,3.7-5.6,8-5.6,12.8V322
	c0,4.8,1.7,8.9,5,12.3c3.3,3.3,7.4,5.2,12.3,5.6c75.9,2.6,146.2,23.3,210.9,62.2s116.5,90.7,155.4,155.4s59.6,135,62.2,210.9
	c0.4,4.8,2.2,8.9,5.6,12.3c3.3,3.3,7.4,5,12.3,5H678c4.8,0,9.1-1.9,12.8-5.6C694.9,776.8,696.6,772.5,695.8,767.3L695.8,767.3z
	 M857.1,232.2v535.7c0,44.3-15.7,82.1-47.2,113.6c-31.4,31.4-69.3,47.2-113.6,47.2H160.7c-44.3,0-82.1-15.7-113.6-47.2
	C15.7,850,0,812.1,0,767.9V232.2c0-44.3,15.7-82.1,47.2-113.6s69.3-47.2,113.6-47.2h535.7c44.3,0,82.1,15.7,113.6,47.2
	S857.1,187.9,857.1,232.2z"/>
<rect id="_x3C_Slice_x3E_" x="-20" y="70" class="st1" width="881" height="860"/>
</svg>
